<?xml version="1.0" encoding="UTF-8"?>
<svg width="1600px" height="450px" viewBox="0 0 1600 450" version="1.1" xmlns="http://www.w3.org/2000/svg" xmlns:xlink="http://www.w3.org/1999/xlink">
    <title>logo</title>
    <defs>
        <path d="M0,0 L1600,0 L1600,450 L0,450 L0,0 Z" id="path-1"></path>
    </defs>
    <g id="logo" stroke="none" fill="none" xlink:href="#path-1" fill-rule="evenodd">
        <use fill="#9079FF" xlink:href="#path-1"></use>
        <g id="Redaxo-Standard" stroke-width="1" transform="translate(17, 83)" fill="#000000">
            <path d="M59.1171875,195.8125 C59.0572917,196.351562 58.952474,196.875651 58.8027344,197.384766 C58.6529948,197.89388 58.2486979,198.298177 57.5898438,198.597656 C57.3502604,198.717448 56.1673177,199.151693 54.0410156,199.900391 C51.9147135,200.649089 49.4589844,201.517578 46.6738281,202.505859 C43.8886719,203.494141 41.1334635,204.482422 38.4082031,205.470703 C35.6829427,206.458984 33.6015625,207.222656 32.1640625,207.761719 C31.4453125,208.061198 30.561849,208.375651 29.5136719,208.705078 C28.4654948,209.034505 27.4322917,209.199219 26.4140625,209.199219 C25.5755208,209.199219 24.8417969,208.989583 24.2128906,208.570312 C23.5839844,208.151042 23.2695312,207.372396 23.2695312,206.234375 C23.2695312,203.598958 23.344401,201.188151 23.4941406,199.001953 C23.6438802,196.815755 23.8385417,194.52474 24.078125,192.128906 C24.3177083,189.733073 24.5722656,187.082682 24.8417969,184.177734 C25.1113281,181.272786 25.3658854,177.813802 25.6054688,173.800781 C25.9049479,168.529948 26.234375,163.453776 26.59375,158.572266 C26.953125,153.690755 27.3125,148.614583 27.671875,143.34375 L28.9296875,127.980469 C29.109375,125.464844 29.2890625,122.904297 29.46875,120.298828 C29.6484375,117.693359 29.828125,115.013021 30.0078125,112.257812 L30.9960938,101.296875 C30.9960938,101.177083 30.8164062,101.117188 30.4570312,101.117188 C29.9778646,101.117188 29.1692708,101.222005 28.03125,101.431641 C26.8932292,101.641276 25.5455729,101.895833 23.9882812,102.195312 C22.4309896,102.494792 20.7089844,102.809245 18.8222656,103.138672 C16.9355469,103.468099 15.0039062,103.782552 13.0273438,104.082031 C12.5481771,104.082031 12.0839844,103.977214 11.6347656,103.767578 C11.1855469,103.557943 10.9609375,103.303385 10.9609375,103.003906 C10.9609375,102.764323 11.0208333,102.584635 11.140625,102.464844 L25.6953125,77.0390625 C28.9895833,76.3203125 32.5384115,75.5865885 36.3417969,74.8378906 C40.1451823,74.0891927 44.2330729,73.4153646 48.6054688,72.8164062 C52.9778646,72.2174479 57.6197917,71.7233073 62.53125,71.3339844 C67.4427083,70.9446615 72.6536458,70.75 78.1640625,70.75 C84.3932292,70.8697917 90.4576823,71.483724 96.3574219,72.5917969 C102.257161,73.6998698 107.498047,75.5566406 112.080078,78.1621094 C116.662109,80.7675781 120.345703,84.3014323 123.130859,88.7636719 C125.916016,93.2259115 127.308594,98.8710938 127.308594,105.699219 C127.308594,109.472656 126.664714,112.946615 125.376953,116.121094 C124.089193,119.295573 122.442057,122.155599 120.435547,124.701172 C118.429036,127.246745 116.227865,129.492839 113.832031,131.439453 C111.436198,133.386068 109.145182,135.048177 106.958984,136.425781 C104.772786,137.803385 102.841146,138.896484 101.164062,139.705078 C99.4869792,140.513672 98.3489583,141.03776 97.75,141.277344 C97.75,141.397135 97.7949219,141.546875 97.8847656,141.726562 C97.9746094,141.90625 98.1692708,142.250651 98.46875,142.759766 C98.7682292,143.26888 99.202474,143.98763 99.7714844,144.916016 C100.340495,145.844401 101.074219,147.117188 101.972656,148.734375 C102.93099,150.171875 104.06901,152.088542 105.386719,154.484375 C106.704427,156.880208 108.276693,159.710286 110.103516,162.974609 C111.930339,166.238932 114.041667,169.877604 116.4375,173.890625 C118.833333,177.903646 121.588542,182.216146 124.703125,186.828125 C125.721354,187.726562 126.889323,188.280599 128.207031,188.490234 C129.52474,188.69987 130.752604,188.819661 131.890625,188.849609 C133.028646,188.879557 133.986979,188.939453 134.765625,189.029297 C135.544271,189.119141 135.933594,189.49349 135.933594,190.152344 C135.933594,190.63151 135.439453,191.185547 134.451172,191.814453 C133.462891,192.443359 132.309896,193.08724 130.992188,193.746094 C129.674479,194.404948 128.341797,195.033854 126.994141,195.632812 C125.646484,196.231771 124.613281,196.710938 123.894531,197.070312 C122.457031,197.789062 120.959635,198.477865 119.402344,199.136719 C117.845052,199.795573 116.167969,200.529297 114.371094,201.337891 C112.574219,202.146484 110.582682,203.089844 108.396484,204.167969 C106.210286,205.246094 103.739583,206.533854 100.984375,208.03125 C100.265625,208.450521 99.5917969,208.735026 98.9628906,208.884766 C98.3339844,209.034505 97.75,209.109375 97.2109375,209.109375 C96.1328125,209.109375 95.2044271,208.854818 94.4257812,208.345703 C93.6471354,207.836589 92.9882812,207.222656 92.4492188,206.503906 C91.9101562,205.785156 91.4759115,205.051432 91.1464844,204.302734 C90.8170573,203.554036 90.5325521,202.940104 90.2929688,202.460938 L63.5195312,146.039062 L59.1171875,195.8125 Z M64.5976562,134.988281 C67.6523438,134.988281 70.8268229,134.209635 74.1210938,132.652344 C77.4153646,131.095052 80.4101562,129.088542 83.1054688,126.632812 C85.8007812,124.177083 88.0169271,121.391927 89.7539062,118.277344 C91.4908854,115.16276 92.359375,112.018229 92.359375,108.84375 C92.359375,100.158854 87.1484375,95.8164062 76.7265625,95.8164062 C74.75,95.8164062 73.1028646,95.9511719 71.7851562,96.2207031 C70.4674479,96.4902344 69.2695312,96.6848958 68.1914062,96.8046875 L64.5976562,134.988281 Z" id="Shape" fill-rule="nonzero"></path>
            <path d="M191.457031,102.734375 C197.147135,102.734375 202.313151,103.797526 206.955078,105.923828 C211.597005,108.05013 215.580078,110.805339 218.904297,114.189453 C222.228516,117.573568 224.789062,121.361979 226.585938,125.554688 C228.382812,129.747396 229.28125,133.940104 229.28125,138.132812 C229.28125,141.846354 228.143229,145.57487 225.867188,149.318359 C223.591146,153.061849 220.401693,156.43099 216.298828,159.425781 C212.195964,162.420573 207.269531,164.846354 201.519531,166.703125 C195.769531,168.559896 189.450521,169.488281 182.5625,169.488281 C178.96875,169.488281 175.195312,169.128906 171.242188,168.410156 C171.481771,170.985677 172.230469,173.201823 173.488281,175.058594 C174.746094,176.915365 176.333333,178.442708 178.25,179.640625 C180.166667,180.838542 182.337891,181.722005 184.763672,182.291016 C187.189453,182.860026 189.690104,183.144531 192.265625,183.144531 C195.140625,183.144531 197.910807,182.889974 200.576172,182.380859 C203.241536,181.871745 205.802083,181.197917 208.257812,180.359375 C210.713542,179.520833 213.079427,178.592448 215.355469,177.574219 C217.63151,176.55599 219.78776,175.53776 221.824219,174.519531 C222.363281,174.39974 222.827474,174.294922 223.216797,174.205078 C223.60612,174.115234 223.980469,174.070312 224.339844,174.070312 C224.339844,174.070312 224.32487,174.549479 224.294922,175.507812 C224.264974,176.466146 224.25,177.813802 224.25,179.550781 C224.25,181.28776 224.235026,183.384115 224.205078,185.839844 C224.17513,188.295573 224.130208,191.020833 224.070312,194.015625 C224.25,194.315104 224.369792,194.614583 224.429688,194.914062 C224.489583,195.213542 224.519531,195.453125 224.519531,195.632812 C224.519531,196.351562 223.860677,197.130208 222.542969,197.96875 C221.22526,198.807292 219.503255,199.675781 217.376953,200.574219 C215.250651,201.472656 212.82487,202.341146 210.099609,203.179688 C207.374349,204.018229 204.604167,204.781901 201.789062,205.470703 C198.973958,206.159505 196.248698,206.698568 193.613281,207.087891 C190.977865,207.477214 188.671875,207.671875 186.695312,207.671875 C180.226562,207.671875 173.952474,206.548828 167.873047,204.302734 C161.79362,202.056641 156.402995,198.83724 151.701172,194.644531 C146.999349,190.451823 143.240885,185.360677 140.425781,179.371094 C137.610677,173.38151 136.203125,166.643229 136.203125,159.15625 C136.203125,151.309896 137.550781,143.957682 140.246094,137.099609 C142.941406,130.241536 146.729818,124.266927 151.611328,119.175781 C156.492839,114.084635 162.317708,110.071615 169.085938,107.136719 C175.854167,104.201823 183.311198,102.734375 191.457031,102.734375 Z M190.378906,126.632812 C187.923177,126.632812 185.662109,127.156901 183.595703,128.205078 C181.529297,129.253255 179.642578,130.750651 177.935547,132.697266 C176.228516,134.64388 174.746094,136.979818 173.488281,139.705078 C172.230469,142.430339 171.21224,145.440104 170.433594,148.734375 C176.602865,147.65625 181.723958,146.518229 185.796875,145.320312 C189.869792,144.122396 193.134115,142.909505 195.589844,141.681641 C198.045573,140.453776 199.782552,139.225911 200.800781,137.998047 C201.81901,136.770182 202.328125,135.58724 202.328125,134.449219 C202.328125,133.371094 201.923828,132.352865 201.115234,131.394531 C200.306641,130.436198 199.303385,129.597656 198.105469,128.878906 C196.907552,128.160156 195.604818,127.60612 194.197266,127.216797 C192.789714,126.827474 191.516927,126.632812 190.378906,126.632812 Z" id="Shape" fill-rule="nonzero"></path>
            <path d="M308.523438,151.878906 C308.703125,149.96224 308.897786,147.955729 309.107422,145.859375 C309.317057,143.763021 309.571615,141.576823 309.871094,139.300781 C308.49349,135.707031 306.546875,132.787109 304.03125,130.541016 C301.515625,128.294922 298.371094,127.171875 294.597656,127.171875 C290.884115,127.171875 287.739583,128.235026 285.164062,130.361328 C282.588542,132.48763 280.522135,135.108073 278.964844,138.222656 C277.407552,141.33724 276.284505,144.616536 275.595703,148.060547 C274.906901,151.504557 274.5625,154.544271 274.5625,157.179688 C274.5625,160.414062 274.757161,163.61849 275.146484,166.792969 C275.535807,169.967448 276.164714,172.842448 277.033203,175.417969 C277.901693,177.99349 279.054688,180.07487 280.492188,181.662109 C281.929688,183.249349 283.726562,184.042969 285.882812,184.042969 C291.153646,183.863281 295.436198,182.665365 298.730469,180.449219 C302.02474,178.233073 304.660156,175.53776 306.636719,172.363281 L308.523438,151.878906 Z M339.878906,193.925781 C339.878906,194.045573 339.863932,194.180339 339.833984,194.330078 C339.804036,194.479818 339.789062,194.614583 339.789062,194.734375 C339.789062,195.033854 339.804036,195.273438 339.833984,195.453125 C339.863932,195.632812 339.878906,195.8125 339.878906,195.992188 C339.878906,196.53125 339.684245,196.965495 339.294922,197.294922 C338.905599,197.624349 337.902344,197.998698 336.285156,198.417969 L312.207031,206.234375 C311.548177,206.473958 310.679688,206.773438 309.601562,207.132812 C308.523438,207.492188 307.47526,207.671875 306.457031,207.671875 C305.61849,207.671875 304.884766,207.46224 304.255859,207.042969 C303.626953,206.623698 303.3125,205.845052 303.3125,204.707031 C303.3125,203.628906 303.327474,202.760417 303.357422,202.101562 C303.38737,201.442708 303.417318,200.828776 303.447266,200.259766 C303.477214,199.690755 303.537109,199.076823 303.626953,198.417969 C303.716797,197.759115 303.821615,196.890625 303.941406,195.8125 C299.449219,199.40625 294.822266,202.28125 290.060547,204.4375 C285.298828,206.59375 280.282552,207.671875 275.011719,207.671875 C269.261719,207.671875 264.155599,206.309245 259.693359,203.583984 C255.23112,200.858724 251.472656,197.205078 248.417969,192.623047 C245.363281,188.041016 243.042318,182.80013 241.455078,176.900391 C239.867839,171.000651 239.074219,164.846354 239.074219,158.4375 C239.074219,150.111979 240.436849,142.520182 243.162109,135.662109 C245.88737,128.804036 249.585938,122.934245 254.257812,118.052734 C258.929688,113.171224 264.380208,109.397786 270.609375,106.732422 C276.838542,104.067057 283.457031,102.734375 290.464844,102.734375 C294.238281,102.734375 297.847005,103.722656 301.291016,105.699219 C304.735026,107.675781 307.984375,110.221354 311.039062,113.335938 C311.21875,110.401042 311.428385,107.211589 311.667969,103.767578 C311.907552,100.323568 312.147135,96.8196615 312.386719,93.2558594 C312.626302,89.6920573 312.865885,86.1731771 313.105469,82.6992188 C313.345052,79.2252604 313.554688,76.0507812 313.734375,73.1757812 C313.734375,72.6367188 313.929036,72.202474 314.318359,71.8730469 C314.707682,71.5436198 315.710938,71.1692708 317.328125,70.75 L342.574219,64.7304688 C343.233073,64.6106771 344.101562,64.3411458 345.179688,63.921875 C346.257812,63.5026042 347.30599,63.2929688 348.324219,63.2929688 C349.102865,63.2929688 349.836589,63.4726562 350.525391,63.8320312 C351.214193,64.1914062 351.558594,64.8802083 351.558594,65.8984375 C351.558594,66.0182292 351.54362,66.2727865 351.513672,66.6621094 C351.483724,67.0514323 351.46875,67.3059896 351.46875,67.4257812 L339.878906,193.925781 Z" id="Shape" fill-rule="nonzero"></path>
            <path d="M451.644531,184.941406 C451.584635,185.18099 451.554688,185.405599 451.554688,185.615234 C451.554688,185.82487 451.554688,186.019531 451.554688,186.199219 C451.554688,187.696615 451.794271,188.939453 452.273438,189.927734 C452.752604,190.916016 453.276693,191.724609 453.845703,192.353516 C454.414714,192.982422 454.938802,193.491536 455.417969,193.880859 C455.897135,194.270182 456.136719,194.614583 456.136719,194.914062 C456.136719,195.752604 455.238281,196.53125 453.441406,197.25 L429.273438,207.582031 C429.213542,207.641927 429.003906,207.671875 428.644531,207.671875 C428.165365,207.671875 427.686198,207.252604 427.207031,206.414062 C426.727865,205.575521 426.263672,204.51237 425.814453,203.224609 C425.365234,201.936849 424.945964,200.559245 424.556641,199.091797 C424.167318,197.624349 423.822917,196.261719 423.523438,195.003906 C419.75,199.376302 415.677083,202.580729 411.304688,204.617188 C406.932292,206.653646 402.589844,207.671875 398.277344,207.671875 C393.246094,207.671875 388.334635,206.563802 383.542969,204.347656 C378.751302,202.13151 374.498698,198.972005 370.785156,194.869141 C367.071615,190.766276 364.091797,185.809896 361.845703,180 C359.599609,174.190104 358.476562,167.661458 358.476562,160.414062 C358.476562,151.848958 359.719401,144.032552 362.205078,136.964844 C364.690755,129.897135 368.059896,123.817708 372.3125,118.726562 C376.565104,113.635417 381.521484,109.697266 387.181641,106.912109 C392.841797,104.126953 398.846354,102.734375 405.195312,102.734375 C409.6875,102.734375 413.940104,103.647786 417.953125,105.474609 C421.966146,107.301432 425.769531,109.652344 429.363281,112.527344 C429.722656,110.730469 429.932292,109.292969 429.992188,108.214844 C430.052083,107.136719 430.186849,106.298177 430.396484,105.699219 C430.60612,105.10026 431.010417,104.695964 431.609375,104.486328 C432.208333,104.276693 433.196615,104.111979 434.574219,103.992188 C438.886719,103.393229 443.184245,102.839193 447.466797,102.330078 C451.749349,101.820964 456.226562,101.446615 460.898438,101.207031 L451.644531,184.941406 Z M424.78125,151.070312 C425.380208,147.65625 425.784505,144.436849 425.994141,141.412109 C426.203776,138.38737 426.36849,135.617188 426.488281,133.101562 C425.529948,132.382812 424.496745,131.634115 423.388672,130.855469 C422.280599,130.076823 421.082682,129.343099 419.794922,128.654297 C418.507161,127.965495 417.159505,127.411458 415.751953,126.992188 C414.344401,126.572917 412.861979,126.363281 411.304688,126.363281 C408.070312,126.363281 405.360026,127.411458 403.173828,129.507812 C400.98763,131.604167 399.220703,134.179688 397.873047,137.234375 C396.525391,140.289062 395.567057,143.523438 394.998047,146.9375 C394.429036,150.351562 394.144531,153.376302 394.144531,156.011719 C394.144531,165.47526 395.38737,172.408203 397.873047,176.810547 C400.358724,181.212891 403.817708,183.414062 408.25,183.414062 C410.046875,183.414062 412.053385,182.904948 414.269531,181.886719 C416.485677,180.86849 418.731771,179.460938 421.007812,177.664062 L424.78125,151.070312 Z" id="Shape" fill-rule="nonzero"></path>
            <path d="M524.148438,208.210938 C524.088542,208.151042 523.654297,207.357422 522.845703,205.830078 C522.037109,204.302734 520.988932,202.326172 519.701172,199.900391 C518.413411,197.474609 516.975911,194.764323 515.388672,191.769531 C513.801432,188.77474 512.199219,185.75 510.582031,182.695312 C508.30599,185.75 506.059896,188.77474 503.84375,191.769531 C501.627604,194.764323 499.651042,197.474609 497.914062,199.900391 C496.177083,202.326172 494.739583,204.302734 493.601562,205.830078 C492.463542,207.357422 491.864583,208.151042 491.804688,208.210938 C491.385417,208.809896 490.816406,209.109375 490.097656,209.109375 C489.738281,209.109375 489.498698,209.079427 489.378906,209.019531 C487.582031,208.121094 485.635417,207.327474 483.539062,206.638672 C481.442708,205.94987 479.301432,205.320964 477.115234,204.751953 C474.929036,204.182943 472.727865,203.64388 470.511719,203.134766 C468.295573,202.625651 466.169271,202.101562 464.132812,201.5625 C463.533854,201.442708 463.234375,201.143229 463.234375,200.664062 C463.234375,200.244792 463.473958,199.705729 463.953125,199.046875 C464.432292,198.388021 465.18099,197.369792 466.199219,195.992188 L495.9375,155.292969 C492.34375,148.644531 488.794922,142.115885 485.291016,135.707031 C481.787109,129.298177 478.178385,122.679688 474.464844,115.851562 C473.80599,114.653646 473.296875,113.72526 472.9375,113.066406 C472.578125,112.407552 472.398438,111.838542 472.398438,111.359375 C472.398438,110.820312 472.78776,110.460938 473.566406,110.28125 C478.058594,109.263021 482.655599,108.19987 487.357422,107.091797 C492.059245,105.983724 496.416667,104.561198 500.429688,102.824219 C500.609375,102.764323 500.878906,102.734375 501.238281,102.734375 C502.016927,102.734375 502.526042,103.033854 502.765625,103.632812 L516.242188,128.070312 L535.019531,103.632812 C535.438802,103.033854 536.007812,102.734375 536.726562,102.734375 C537.085938,102.734375 537.325521,102.764323 537.445312,102.824219 C541.098958,104.561198 545.186849,105.983724 549.708984,107.091797 C554.23112,108.19987 558.588542,109.263021 562.78125,110.28125 C563.380208,110.460938 563.679688,110.730469 563.679688,111.089844 C563.679688,111.628906 563.440104,112.212891 562.960938,112.841797 C562.481771,113.470703 561.733073,114.473958 560.714844,115.851562 C555.503906,122.679688 550.442708,129.283203 545.53125,135.662109 C540.619792,142.041016 535.738281,148.584635 530.886719,155.292969 L552.449219,195.992188 C553.048177,197.130208 553.527344,198.028646 553.886719,198.6875 C554.246094,199.346354 554.425781,199.915365 554.425781,200.394531 C554.425781,200.99349 554.066406,201.382812 553.347656,201.5625 C548.855469,202.580729 544.258464,203.64388 539.556641,204.751953 C534.854818,205.860026 530.497396,207.282552 526.484375,209.019531 C526.304688,209.079427 526.035156,209.109375 525.675781,209.109375 C525.016927,209.109375 524.507812,208.809896 524.148438,208.210938 Z" id="Path" fill-rule="nonzero"></path>
            <path d="M611.835938,207.671875 C603.390625,207.671875 595.978516,206.294271 589.599609,203.539062 C583.220703,200.783854 577.875,197.115234 573.5625,192.533203 C569.25,187.951172 566.015625,182.680339 563.859375,176.720703 C561.703125,170.761068 560.625,164.576823 560.625,158.167969 C560.625,151.759115 561.673177,145.664714 563.769531,139.884766 C565.865885,134.104818 568.800781,128.923828 572.574219,124.341797 C576.347656,119.759766 580.869792,115.926432 586.140625,112.841797 C591.411458,109.757161 597.221354,107.675781 603.570312,106.597656 C604.528646,106.53776 605.007812,106.328125 605.007812,105.96875 C605.007812,105.309896 604.932943,104.695964 604.783203,104.126953 C604.633464,103.557943 604.558594,103.063802 604.558594,102.644531 C604.558594,101.985677 604.678385,101.536458 604.917969,101.296875 C605.157552,101.057292 605.427083,100.9375 605.726562,100.9375 C617.166667,100.9375 626.89974,102.240234 634.925781,104.845703 C642.951823,107.451172 649.480469,111 654.511719,115.492188 C659.542969,119.984375 663.196615,125.285156 665.472656,131.394531 C667.748698,137.503906 668.886719,144.0625 668.886719,151.070312 C668.886719,159.994792 667.389323,167.960938 664.394531,174.96875 C661.39974,181.976562 657.311849,187.90625 652.130859,192.757812 C646.94987,197.609375 640.900391,201.307943 633.982422,203.853516 C627.064453,206.399089 619.682292,207.671875 611.835938,207.671875 Z M595.214844,157.179688 C595.214844,160.414062 595.559245,163.61849 596.248047,166.792969 C596.936849,169.967448 598.07487,172.842448 599.662109,175.417969 C601.249349,177.99349 603.330729,180.07487 605.90625,181.662109 C608.481771,183.249349 611.686198,184.042969 615.519531,184.042969 C618.27474,183.923177 620.685547,183.309245 622.751953,182.201172 C624.818359,181.093099 626.60026,179.655599 628.097656,177.888672 C629.595052,176.121745 630.837891,174.130208 631.826172,171.914062 C632.814453,169.697917 633.593099,167.406901 634.162109,165.041016 C634.73112,162.67513 635.135417,160.354167 635.375,158.078125 C635.614583,155.802083 635.734375,153.735677 635.734375,151.878906 C635.734375,148.764323 635.270182,145.709635 634.341797,142.714844 C633.413411,139.720052 632.050781,137.084635 630.253906,134.808594 C628.457031,132.532552 626.225911,130.690755 623.560547,129.283203 C620.895182,127.875651 617.825521,127.171875 614.351562,127.171875 C610.757812,127.171875 607.733073,128.235026 605.277344,130.361328 C602.821615,132.48763 600.860026,135.108073 599.392578,138.222656 C597.92513,141.33724 596.861979,144.616536 596.203125,148.060547 C595.544271,151.504557 595.214844,154.544271 595.214844,157.179688 Z" id="Shape" fill-rule="nonzero"></path>
            <path d="M723.332031,169.578125 C723.332031,169.518229 723.317057,169.458333 723.287109,169.398438 C723.257161,169.338542 723.242188,169.278646 723.242188,169.21875 C723.242188,168.200521 723.78125,167.691406 724.859375,167.691406 C725.398438,167.691406 725.997396,167.960938 726.65625,168.5 C729.890625,171.554688 733.484375,173.980469 737.4375,175.777344 C741.390625,177.574219 745.703125,178.472656 750.375,178.472656 C751.632812,178.472656 753.070312,178.337891 754.6875,178.068359 C756.304688,177.798828 757.832031,177.349609 759.269531,176.720703 C760.707031,176.091797 761.919922,175.268229 762.908203,174.25 C763.896484,173.231771 764.390625,171.94401 764.390625,170.386719 C764.390625,168.64974 763.971354,167.092448 763.132812,165.714844 C762.294271,164.33724 761.186198,163.169271 759.808594,162.210938 C759.269531,161.851562 758.460938,161.252604 757.382812,160.414062 C756.304688,159.575521 755.076823,158.617188 753.699219,157.539062 C752.321615,156.460938 750.884115,155.307943 749.386719,154.080078 C747.889323,152.852214 746.466797,151.684245 745.119141,150.576172 C743.771484,149.468099 742.558594,148.464844 741.480469,147.566406 C740.402344,146.667969 739.59375,145.979167 739.054688,145.5 C735.520833,142.864583 732.720703,140.199219 730.654297,137.503906 C728.587891,134.808594 727.015625,131.99349 725.9375,129.058594 C724.859375,126.123698 724.170573,123.083984 723.871094,119.939453 C723.571615,116.794922 723.421875,113.455729 723.421875,109.921875 C723.421875,104.651042 724.679688,99.6497396 727.195312,94.9179688 C729.710938,90.1861979 733.259766,86.0683594 737.841797,82.5644531 C742.423828,79.0605469 747.919271,76.2753906 754.328125,74.2089844 C760.736979,72.1425781 767.864583,71.109375 775.710938,71.109375 C776.669271,71.109375 778.106771,71.2141927 780.023438,71.4238281 C781.940104,71.6334635 784.051432,71.9778646 786.357422,72.4570312 C788.663411,72.9361979 791.014323,73.5950521 793.410156,74.4335938 C795.80599,75.2721354 797.992188,76.3502604 799.96875,77.6679688 C800.627604,78.1471354 801.151693,78.6263021 801.541016,79.1054688 C801.930339,79.5846354 802.184896,80.3333333 802.304688,81.3515625 C802.604167,86.203125 802.84375,90.9798177 803.023438,95.6816406 C803.203125,100.383464 803.442708,105.369792 803.742188,110.640625 C803.742188,111.658854 803.532552,112.332682 803.113281,112.662109 C802.69401,112.991536 802.154948,113.15625 801.496094,113.15625 C800.83724,113.15625 800.328125,112.976562 799.96875,112.617188 C798.231771,110.880208 796.434896,109.173177 794.578125,107.496094 C792.721354,105.81901 790.77474,104.336589 788.738281,103.048828 C786.701823,101.761068 784.530599,100.727865 782.224609,99.9492188 C779.91862,99.1705729 777.417969,98.78125 774.722656,98.78125 C773.105469,98.78125 771.488281,98.9160156 769.871094,99.1855469 C768.253906,99.4550781 766.786458,99.9492188 765.46875,100.667969 C764.151042,101.386719 763.087891,102.375 762.279297,103.632812 C761.470703,104.890625 761.066406,106.477865 761.066406,108.394531 C761.066406,110.43099 761.320964,112.197917 761.830078,113.695312 C762.339193,115.192708 763.611979,116.60026 765.648438,117.917969 L787.210938,132.5625 C791.164062,135.377604 794.36849,138.177734 796.824219,140.962891 C799.279948,143.748047 801.196615,146.518229 802.574219,149.273438 C803.951823,152.028646 804.895182,154.738932 805.404297,157.404297 C805.913411,160.069661 806.167969,162.690104 806.167969,165.265625 C806.167969,169.458333 805.479167,173.411458 804.101562,177.125 C802.723958,180.838542 800.83724,184.267578 798.441406,187.412109 C796.045573,190.556641 793.245443,193.371745 790.041016,195.857422 C786.836589,198.343099 783.407552,200.469401 779.753906,202.236328 C776.10026,204.003255 772.311849,205.350911 768.388672,206.279297 C764.465495,207.207682 760.617188,207.671875 756.84375,207.671875 C753.908854,207.671875 751.01888,207.626953 748.173828,207.537109 C745.328776,207.447266 742.558594,207.207682 739.863281,206.818359 C737.167969,206.429036 734.5625,205.830078 732.046875,205.021484 C729.53125,204.212891 727.135417,203.089844 724.859375,201.652344 L723.332031,169.578125 Z" id="Path" fill-rule="nonzero"></path>
            <path d="M861.78125,133.730469 C860.942708,140.019531 860.149089,146.29362 859.400391,152.552734 C858.651693,158.811849 858.1875,164.666667 858.007812,170.117188 C858.007812,172.453125 858.1875,174.39974 858.546875,175.957031 C858.90625,177.514323 859.430339,178.742188 860.119141,179.640625 C860.807943,180.539062 861.63151,181.182943 862.589844,181.572266 C863.548177,181.961589 864.626302,182.15625 865.824219,182.15625 C867.740885,182.15625 869.83724,181.871745 872.113281,181.302734 C874.389323,180.733724 876.665365,180 878.941406,179.101562 C879.660156,178.802083 880.274089,178.577474 880.783203,178.427734 C881.292318,178.277995 881.726562,178.203125 882.085938,178.203125 C882.684896,178.203125 883.089193,178.472656 883.298828,179.011719 C883.508464,179.550781 883.718099,180.494141 883.927734,181.841797 C884.13737,183.189453 884.451823,185.001302 884.871094,187.277344 C885.290365,189.553385 885.979167,192.428385 886.9375,195.902344 C886.997396,196.201823 887.042318,196.45638 887.072266,196.666016 C887.102214,196.875651 887.117188,197.070312 887.117188,197.25 C887.117188,198.088542 886.802734,198.6875 886.173828,199.046875 C885.544922,199.40625 884.511719,199.825521 883.074219,200.304688 C880.61849,201.143229 878.027995,201.996745 875.302734,202.865234 C872.577474,203.733724 869.882161,204.527344 867.216797,205.246094 C864.551432,205.964844 861.990885,206.548828 859.535156,206.998047 C857.079427,207.447266 854.923177,207.671875 853.066406,207.671875 C843.063802,207.671875 835.771484,205.186198 831.189453,200.214844 C826.607422,195.24349 824.316406,187.666667 824.316406,177.484375 C824.316406,175.747396 824.376302,173.965495 824.496094,172.138672 C824.615885,170.311849 824.765625,168.410156 824.945312,166.433594 C825.544271,160.44401 826.068359,154.76888 826.517578,149.408203 C826.966797,144.047526 827.43099,138.911458 827.910156,134 L818.476562,134 C815.242188,134 812.90625,133.865234 811.46875,133.595703 C810.03125,133.326172 809.3125,132.772135 809.3125,131.933594 C809.3125,131.69401 809.611979,131.05013 810.210938,130.001953 C810.809896,128.953776 811.573568,127.695964 812.501953,126.228516 C813.430339,124.761068 814.433594,123.188802 815.511719,121.511719 C816.589844,119.834635 817.623047,118.26237 818.611328,116.794922 C819.599609,115.327474 820.453125,114.054688 821.171875,112.976562 C821.890625,111.898438 822.339844,111.239583 822.519531,111 L828.898438,111 C829.4375,106.447917 829.871745,102.629557 830.201172,99.5449219 C830.530599,96.4602865 830.80013,93.8997396 831.009766,91.8632812 C831.219401,89.8268229 831.414062,88.2545573 831.59375,87.1464844 C831.773438,86.0384115 831.968099,85.2148438 832.177734,84.6757812 C832.38737,84.1367188 832.656901,83.7923177 832.986328,83.6425781 C833.315755,83.4928385 833.75,83.3580729 834.289062,83.2382812 C836.984375,82.6992188 839.589844,82.2050781 842.105469,81.7558594 C844.621094,81.3066406 847.136719,80.8424479 849.652344,80.3632812 C852.167969,79.8841146 854.728516,79.3300781 857.333984,78.7011719 C859.939453,78.0722656 862.64974,77.3385417 865.464844,76.5 C865.644531,76.5 865.764323,76.485026 865.824219,76.4550781 C865.884115,76.4251302 866.003906,76.4101562 866.183594,76.4101562 C866.902344,76.4101562 867.261719,76.6497396 867.261719,77.1289062 L867.261719,77.3085938 C866.96224,80.6028646 866.498047,85.1848958 865.869141,91.0546875 C865.240234,96.9244792 864.536458,103.572917 863.757812,111 L887.835938,111 C888.315104,111 888.779297,111.164714 889.228516,111.494141 C889.677734,111.823568 889.902344,112.377604 889.902344,113.15625 C889.902344,113.455729 889.542969,114.533854 888.824219,116.390625 C888.105469,118.247396 887.08724,120.673177 885.769531,123.667969 L882.535156,130.945312 C882.115885,131.84375 881.681641,132.502604 881.232422,132.921875 C880.783203,133.341146 879.869792,133.610677 878.492188,133.730469 L861.78125,133.730469 Z" id="Path" fill-rule="nonzero"></path>
            <path d="M988.101562,184.941406 C988.041667,185.18099 988.011719,185.405599 988.011719,185.615234 C988.011719,185.82487 988.011719,186.019531 988.011719,186.199219 C988.011719,187.696615 988.251302,188.939453 988.730469,189.927734 C989.209635,190.916016 989.733724,191.724609 990.302734,192.353516 C990.871745,192.982422 991.395833,193.491536 991.875,193.880859 C992.354167,194.270182 992.59375,194.614583 992.59375,194.914062 C992.59375,195.752604 991.695312,196.53125 989.898438,197.25 L965.730469,207.582031 C965.670573,207.641927 965.460938,207.671875 965.101562,207.671875 C964.622396,207.671875 964.143229,207.252604 963.664062,206.414062 C963.184896,205.575521 962.720703,204.51237 962.271484,203.224609 C961.822266,201.936849 961.402995,200.559245 961.013672,199.091797 C960.624349,197.624349 960.279948,196.261719 959.980469,195.003906 C956.207031,199.376302 952.134115,202.580729 947.761719,204.617188 C943.389323,206.653646 939.046875,207.671875 934.734375,207.671875 C929.703125,207.671875 924.791667,206.563802 920,204.347656 C915.208333,202.13151 910.955729,198.972005 907.242188,194.869141 C903.528646,190.766276 900.548828,185.809896 898.302734,180 C896.056641,174.190104 894.933594,167.661458 894.933594,160.414062 C894.933594,151.848958 896.176432,144.032552 898.662109,136.964844 C901.147786,129.897135 904.516927,123.817708 908.769531,118.726562 C913.022135,113.635417 917.978516,109.697266 923.638672,106.912109 C929.298828,104.126953 935.303385,102.734375 941.652344,102.734375 C946.144531,102.734375 950.397135,103.647786 954.410156,105.474609 C958.423177,107.301432 962.226562,109.652344 965.820312,112.527344 C966.179688,110.730469 966.389323,109.292969 966.449219,108.214844 C966.509115,107.136719 966.64388,106.298177 966.853516,105.699219 C967.063151,105.10026 967.467448,104.695964 968.066406,104.486328 C968.665365,104.276693 969.653646,104.111979 971.03125,103.992188 C975.34375,103.393229 979.641276,102.839193 983.923828,102.330078 C988.20638,101.820964 992.683594,101.446615 997.355469,101.207031 L988.101562,184.941406 Z M961.238281,151.070312 C961.83724,147.65625 962.241536,144.436849 962.451172,141.412109 C962.660807,138.38737 962.825521,135.617188 962.945312,133.101562 C961.986979,132.382812 960.953776,131.634115 959.845703,130.855469 C958.73763,130.076823 957.539714,129.343099 956.251953,128.654297 C954.964193,127.965495 953.616536,127.411458 952.208984,126.992188 C950.801432,126.572917 949.31901,126.363281 947.761719,126.363281 C944.527344,126.363281 941.817057,127.411458 939.630859,129.507812 C937.444661,131.604167 935.677734,134.179688 934.330078,137.234375 C932.982422,140.289062 932.024089,143.523438 931.455078,146.9375 C930.886068,150.351562 930.601562,153.376302 930.601562,156.011719 C930.601562,165.47526 931.844401,172.408203 934.330078,176.810547 C936.815755,181.212891 940.27474,183.414062 944.707031,183.414062 C946.503906,183.414062 948.510417,182.904948 950.726562,181.886719 C952.942708,180.86849 955.188802,179.460938 957.464844,177.664062 L961.238281,151.070312 Z" id="Shape" fill-rule="nonzero"></path>
            <path d="M1083.06641,206.234375 C1082.40755,206.414062 1081.53906,206.698568 1080.46094,207.087891 C1079.38281,207.477214 1078.33464,207.671875 1077.31641,207.671875 C1076.47786,207.671875 1075.74414,207.46224 1075.11523,207.042969 C1074.48633,206.623698 1074.17188,205.904948 1074.17188,204.886719 L1074.17188,204.347656 C1074.53125,201.113281 1074.83073,198.373047 1075.07031,196.126953 C1075.3099,193.880859 1075.53451,191.844401 1075.74414,190.017578 C1075.95378,188.190755 1076.13346,186.363932 1076.2832,184.537109 C1076.43294,182.710286 1076.6276,180.583984 1076.86719,178.158203 C1077.10677,175.732422 1077.39128,172.857422 1077.7207,169.533203 C1078.05013,166.208984 1078.45443,162.061198 1078.93359,157.089844 C1079.23307,154.035156 1079.5026,150.920573 1079.74219,147.746094 C1079.98177,144.571615 1080.10156,141.636719 1080.10156,138.941406 C1080.10156,137.144531 1079.9668,135.482422 1079.69727,133.955078 C1079.42773,132.427734 1078.94857,131.110026 1078.25977,130.001953 C1077.57096,128.89388 1076.6276,128.040365 1075.42969,127.441406 C1074.23177,126.842448 1072.70443,126.542969 1070.84766,126.542969 C1069.47005,126.542969 1067.56836,126.842448 1065.14258,127.441406 C1062.7168,128.040365 1060.30599,129.028646 1057.91016,130.40625 C1055.51432,131.783854 1053.38802,133.595703 1051.53125,135.841797 C1049.67448,138.087891 1048.6263,140.858073 1048.38672,144.152344 C1048.02734,148.584635 1047.69792,152.373047 1047.39844,155.517578 C1047.09896,158.662109 1046.82943,161.327474 1046.58984,163.513672 C1046.35026,165.69987 1046.1556,167.481771 1046.00586,168.859375 C1045.85612,170.236979 1045.7513,171.404948 1045.69141,172.363281 C1045.63151,172.602865 1045.54167,173.261719 1045.42188,174.339844 C1045.30208,175.417969 1045.16732,176.705729 1045.01758,178.203125 C1044.86784,179.700521 1044.7181,181.28776 1044.56836,182.964844 C1044.41862,184.641927 1044.26888,186.229167 1044.11914,187.726562 C1043.9694,189.223958 1043.84961,190.511719 1043.75977,191.589844 C1043.66992,192.667969 1043.625,193.326823 1043.625,193.566406 C1043.625,194.045573 1043.63997,194.44987 1043.66992,194.779297 C1043.69987,195.108724 1043.71484,195.423177 1043.71484,195.722656 C1043.71484,196.201823 1043.49023,196.60612 1043.04102,196.935547 C1042.5918,197.264974 1041.58854,197.639323 1040.03125,198.058594 L1016.22266,206.234375 C1015.5638,206.473958 1014.69531,206.773438 1013.61719,207.132812 C1012.53906,207.492188 1011.49089,207.671875 1010.47266,207.671875 C1009.63411,207.671875 1008.90039,207.46224 1008.27148,207.042969 C1007.64258,206.623698 1007.32812,205.904948 1007.32812,204.886719 L1015.50391,113.066406 C1015.68359,111.089844 1015.9082,109.727214 1016.17773,108.978516 C1016.44727,108.229818 1017.12109,107.735677 1018.19922,107.496094 C1023.64974,106.417969 1029.25,105.32487 1035,104.216797 C1040.75,103.108724 1046.35026,101.686198 1051.80078,99.9492188 C1052.27995,99.9492188 1052.56445,100.024089 1052.6543,100.173828 C1052.74414,100.323568 1052.78906,100.548177 1052.78906,100.847656 C1052.78906,100.967448 1052.77409,101.147135 1052.74414,101.386719 C1052.71419,101.626302 1052.62435,102.165365 1052.47461,103.003906 C1052.32487,103.842448 1052.11523,105.115234 1051.8457,106.822266 C1051.57617,108.529297 1051.20182,110.910156 1050.72266,113.964844 C1054.85547,111.56901 1058.73372,109.63737 1062.35742,108.169922 C1065.98112,106.702474 1069.39518,105.564453 1072.59961,104.755859 C1075.80404,103.947266 1078.8138,103.408203 1081.62891,103.138672 C1084.44401,102.869141 1087.07943,102.734375 1089.53516,102.734375 C1097.98047,102.734375 1104.11979,105.294922 1107.95312,110.416016 C1111.78646,115.537109 1113.70312,123.21875 1113.70312,133.460938 C1113.70312,134.898438 1113.67318,136.380859 1113.61328,137.908203 C1113.55339,139.435547 1113.43359,141.007812 1113.25391,142.625 L1109.12109,181.257812 C1108.82161,183.773438 1108.64193,186.094401 1108.58203,188.220703 C1108.52214,190.347005 1108.49219,192.817708 1108.49219,195.632812 C1108.49219,196.111979 1108.50716,196.516276 1108.53711,196.845703 C1108.56706,197.17513 1108.58203,197.459635 1108.58203,197.699219 C1108.58203,198.238281 1108.35742,198.657552 1107.9082,198.957031 C1107.45898,199.25651 1106.45573,199.645833 1104.89844,200.125 L1083.06641,206.234375 Z" id="Path" fill-rule="nonzero"></path>
            <path d="M1195.28125,151.878906 C1195.46094,149.96224 1195.6556,147.955729 1195.86523,145.859375 C1196.07487,143.763021 1196.32943,141.576823 1196.62891,139.300781 C1195.2513,135.707031 1193.30469,132.787109 1190.78906,130.541016 C1188.27344,128.294922 1185.12891,127.171875 1181.35547,127.171875 C1177.64193,127.171875 1174.4974,128.235026 1171.92188,130.361328 C1169.34635,132.48763 1167.27995,135.108073 1165.72266,138.222656 C1164.16536,141.33724 1163.04232,144.616536 1162.35352,148.060547 C1161.66471,151.504557 1161.32031,154.544271 1161.32031,157.179688 C1161.32031,160.414062 1161.51497,163.61849 1161.9043,166.792969 C1162.29362,169.967448 1162.92253,172.842448 1163.79102,175.417969 C1164.65951,177.99349 1165.8125,180.07487 1167.25,181.662109 C1168.6875,183.249349 1170.48438,184.042969 1172.64062,184.042969 C1177.91146,183.863281 1182.19401,182.665365 1185.48828,180.449219 C1188.78255,178.233073 1191.41797,175.53776 1193.39453,172.363281 L1195.28125,151.878906 Z M1226.63672,193.925781 C1226.63672,194.045573 1226.62174,194.180339 1226.5918,194.330078 C1226.56185,194.479818 1226.54688,194.614583 1226.54688,194.734375 C1226.54688,195.033854 1226.56185,195.273438 1226.5918,195.453125 C1226.62174,195.632812 1226.63672,195.8125 1226.63672,195.992188 C1226.63672,196.53125 1226.44206,196.965495 1226.05273,197.294922 C1225.66341,197.624349 1224.66016,197.998698 1223.04297,198.417969 L1198.96484,206.234375 C1198.30599,206.473958 1197.4375,206.773438 1196.35938,207.132812 C1195.28125,207.492188 1194.23307,207.671875 1193.21484,207.671875 C1192.3763,207.671875 1191.64258,207.46224 1191.01367,207.042969 C1190.38477,206.623698 1190.07031,205.845052 1190.07031,204.707031 C1190.07031,203.628906 1190.08529,202.760417 1190.11523,202.101562 C1190.14518,201.442708 1190.17513,200.828776 1190.20508,200.259766 C1190.23503,199.690755 1190.29492,199.076823 1190.38477,198.417969 C1190.47461,197.759115 1190.57943,196.890625 1190.69922,195.8125 C1186.20703,199.40625 1181.58008,202.28125 1176.81836,204.4375 C1172.05664,206.59375 1167.04036,207.671875 1161.76953,207.671875 C1156.01953,207.671875 1150.91341,206.309245 1146.45117,203.583984 C1141.98893,200.858724 1138.23047,197.205078 1135.17578,192.623047 C1132.12109,188.041016 1129.80013,182.80013 1128.21289,176.900391 C1126.62565,171.000651 1125.83203,164.846354 1125.83203,158.4375 C1125.83203,150.111979 1127.19466,142.520182 1129.91992,135.662109 C1132.64518,128.804036 1136.34375,122.934245 1141.01562,118.052734 C1145.6875,113.171224 1151.13802,109.397786 1157.36719,106.732422 C1163.59635,104.067057 1170.21484,102.734375 1177.22266,102.734375 C1180.99609,102.734375 1184.60482,103.722656 1188.04883,105.699219 C1191.49284,107.675781 1194.74219,110.221354 1197.79688,113.335938 C1197.97656,110.401042 1198.1862,107.211589 1198.42578,103.767578 C1198.66536,100.323568 1198.90495,96.8196615 1199.14453,93.2558594 C1199.38411,89.6920573 1199.6237,86.1731771 1199.86328,82.6992188 C1200.10286,79.2252604 1200.3125,76.0507812 1200.49219,73.1757812 C1200.49219,72.6367188 1200.68685,72.202474 1201.07617,71.8730469 C1201.46549,71.5436198 1202.46875,71.1692708 1204.08594,70.75 L1229.33203,64.7304688 C1229.99089,64.6106771 1230.85938,64.3411458 1231.9375,63.921875 C1233.01562,63.5026042 1234.0638,63.2929688 1235.08203,63.2929688 C1235.86068,63.2929688 1236.5944,63.4726562 1237.2832,63.8320312 C1237.97201,64.1914062 1238.31641,64.8802083 1238.31641,65.8984375 C1238.31641,66.0182292 1238.30143,66.2727865 1238.27148,66.6621094 C1238.24154,67.0514323 1238.22656,67.3059896 1238.22656,67.4257812 L1226.63672,193.925781 Z" id="Shape" fill-rule="nonzero"></path>
            <path d="M1338.40234,184.941406 C1338.34245,185.18099 1338.3125,185.405599 1338.3125,185.615234 C1338.3125,185.82487 1338.3125,186.019531 1338.3125,186.199219 C1338.3125,187.696615 1338.55208,188.939453 1339.03125,189.927734 C1339.51042,190.916016 1340.03451,191.724609 1340.60352,192.353516 C1341.17253,192.982422 1341.69661,193.491536 1342.17578,193.880859 C1342.65495,194.270182 1342.89453,194.614583 1342.89453,194.914062 C1342.89453,195.752604 1341.99609,196.53125 1340.19922,197.25 L1316.03125,207.582031 C1315.97135,207.641927 1315.76172,207.671875 1315.40234,207.671875 C1314.92318,207.671875 1314.44401,207.252604 1313.96484,206.414062 C1313.48568,205.575521 1313.02148,204.51237 1312.57227,203.224609 C1312.12305,201.936849 1311.70378,200.559245 1311.31445,199.091797 C1310.92513,197.624349 1310.58073,196.261719 1310.28125,195.003906 C1306.50781,199.376302 1302.4349,202.580729 1298.0625,204.617188 C1293.6901,206.653646 1289.34766,207.671875 1285.03516,207.671875 C1280.00391,207.671875 1275.09245,206.563802 1270.30078,204.347656 C1265.50911,202.13151 1261.25651,198.972005 1257.54297,194.869141 C1253.82943,190.766276 1250.84961,185.809896 1248.60352,180 C1246.35742,174.190104 1245.23438,167.661458 1245.23438,160.414062 C1245.23438,151.848958 1246.47721,144.032552 1248.96289,136.964844 C1251.44857,129.897135 1254.81771,123.817708 1259.07031,118.726562 C1263.32292,113.635417 1268.2793,109.697266 1273.93945,106.912109 C1279.59961,104.126953 1285.60417,102.734375 1291.95312,102.734375 C1296.44531,102.734375 1300.69792,103.647786 1304.71094,105.474609 C1308.72396,107.301432 1312.52734,109.652344 1316.12109,112.527344 C1316.48047,110.730469 1316.6901,109.292969 1316.75,108.214844 C1316.8099,107.136719 1316.94466,106.298177 1317.1543,105.699219 C1317.36393,105.10026 1317.76823,104.695964 1318.36719,104.486328 C1318.96615,104.276693 1319.95443,104.111979 1321.33203,103.992188 C1325.64453,103.393229 1329.94206,102.839193 1334.22461,102.330078 C1338.50716,101.820964 1342.98438,101.446615 1347.65625,101.207031 L1338.40234,184.941406 Z M1311.53906,151.070312 C1312.13802,147.65625 1312.54232,144.436849 1312.75195,141.412109 C1312.96159,138.38737 1313.1263,135.617188 1313.24609,133.101562 C1312.28776,132.382812 1311.25456,131.634115 1310.14648,130.855469 C1309.03841,130.076823 1307.84049,129.343099 1306.55273,128.654297 C1305.26497,127.965495 1303.91732,127.411458 1302.50977,126.992188 C1301.10221,126.572917 1299.61979,126.363281 1298.0625,126.363281 C1294.82812,126.363281 1292.11784,127.411458 1289.93164,129.507812 C1287.74544,131.604167 1285.97852,134.179688 1284.63086,137.234375 C1283.2832,140.289062 1282.32487,143.523438 1281.75586,146.9375 C1281.18685,150.351562 1280.90234,153.376302 1280.90234,156.011719 C1280.90234,165.47526 1282.14518,172.408203 1284.63086,176.810547 C1287.11654,181.212891 1290.57552,183.414062 1295.00781,183.414062 C1296.80469,183.414062 1298.8112,182.904948 1301.02734,181.886719 C1303.24349,180.86849 1305.48958,179.460938 1307.76562,177.664062 L1311.53906,151.070312 Z" id="Shape" fill-rule="nonzero"></path>
            <path d="M1432.28906,129.867188 C1431.03125,129.747396 1429.6237,129.61263 1428.06641,129.462891 C1426.50911,129.313151 1424.86198,129.238281 1423.125,129.238281 C1420.48958,129.238281 1417.80924,129.462891 1415.08398,129.912109 C1412.35872,130.361328 1409.82812,131.244792 1407.49219,132.5625 C1405.15625,133.880208 1403.14974,135.692057 1401.47266,137.998047 C1399.79557,140.304036 1398.71745,143.283854 1398.23828,146.9375 C1397.81901,151.369792 1397.47461,155.008464 1397.20508,157.853516 C1396.93555,160.698568 1396.74089,163.034505 1396.62109,164.861328 C1396.5013,166.688151 1396.39648,168.155599 1396.30664,169.263672 C1396.2168,170.371745 1396.14193,171.404948 1396.08203,172.363281 C1396.08203,172.602865 1396.03711,173.261719 1395.94727,174.339844 C1395.85742,175.417969 1395.72266,176.675781 1395.54297,178.113281 C1395.36328,179.550781 1395.19857,181.108073 1395.04883,182.785156 C1394.89909,184.46224 1394.73438,186.019531 1394.55469,187.457031 C1394.375,188.894531 1394.24023,190.152344 1394.15039,191.230469 C1394.06055,192.308594 1394.01562,192.967448 1394.01562,193.207031 C1394.01562,193.686198 1394.0306,194.090495 1394.06055,194.419922 C1394.09049,194.749349 1394.10547,195.063802 1394.10547,195.363281 C1394.10547,195.842448 1393.88086,196.246745 1393.43164,196.576172 C1392.98242,196.905599 1391.97917,197.279948 1390.42188,197.699219 L1366.61328,206.234375 C1365.95443,206.473958 1365.08594,206.773438 1364.00781,207.132812 C1362.92969,207.492188 1361.88151,207.671875 1360.86328,207.671875 C1360.02474,207.671875 1359.29102,207.46224 1358.66211,207.042969 C1358.0332,206.623698 1357.71875,205.904948 1357.71875,204.886719 L1365.44531,115.851562 C1365.625,113.875 1365.84961,112.51237 1366.11914,111.763672 C1366.38867,111.014974 1367.0625,110.520833 1368.14062,110.28125 C1373.59115,109.203125 1379.22135,108.110026 1385.03125,107.001953 C1390.84115,105.89388 1396.47135,104.471354 1401.92188,102.734375 C1402.40104,102.734375 1402.68555,102.809245 1402.77539,102.958984 C1402.86523,103.108724 1402.91016,103.333333 1402.91016,103.632812 C1402.91016,103.752604 1402.89518,103.932292 1402.86523,104.171875 C1402.83529,104.411458 1402.74544,104.950521 1402.5957,105.789062 C1402.44596,106.627604 1402.23633,107.900391 1401.9668,109.607422 C1401.69727,111.314453 1401.32292,113.695312 1400.84375,116.75 C1403.59896,114.59375 1406.63867,112.617188 1409.96289,110.820312 C1413.28711,109.023438 1416.6263,107.48112 1419.98047,106.193359 C1423.33464,104.905599 1426.56901,103.88737 1429.68359,103.138672 C1432.79818,102.389974 1435.52344,102.015625 1437.85938,102.015625 L1432.28906,129.867188 Z" id="Path" fill-rule="nonzero"></path>
            <path d="M1506.41016,151.878906 C1506.58984,149.96224 1506.78451,147.955729 1506.99414,145.859375 C1507.20378,143.763021 1507.45833,141.576823 1507.75781,139.300781 C1506.38021,135.707031 1504.43359,132.787109 1501.91797,130.541016 C1499.40234,128.294922 1496.25781,127.171875 1492.48438,127.171875 C1488.77083,127.171875 1485.6263,128.235026 1483.05078,130.361328 C1480.47526,132.48763 1478.40885,135.108073 1476.85156,138.222656 C1475.29427,141.33724 1474.17122,144.616536 1473.48242,148.060547 C1472.79362,151.504557 1472.44922,154.544271 1472.44922,157.179688 C1472.44922,160.414062 1472.64388,163.61849 1473.0332,166.792969 C1473.42253,169.967448 1474.05143,172.842448 1474.91992,175.417969 C1475.78841,177.99349 1476.94141,180.07487 1478.37891,181.662109 C1479.81641,183.249349 1481.61328,184.042969 1483.76953,184.042969 C1489.04036,183.863281 1493.32292,182.665365 1496.61719,180.449219 C1499.91146,178.233073 1502.54688,175.53776 1504.52344,172.363281 L1506.41016,151.878906 Z M1537.76562,193.925781 C1537.76562,194.045573 1537.75065,194.180339 1537.7207,194.330078 C1537.69076,194.479818 1537.67578,194.614583 1537.67578,194.734375 C1537.67578,195.033854 1537.69076,195.273438 1537.7207,195.453125 C1537.75065,195.632812 1537.76562,195.8125 1537.76562,195.992188 C1537.76562,196.53125 1537.57096,196.965495 1537.18164,197.294922 C1536.79232,197.624349 1535.78906,197.998698 1534.17188,198.417969 L1510.09375,206.234375 C1509.4349,206.473958 1508.56641,206.773438 1507.48828,207.132812 C1506.41016,207.492188 1505.36198,207.671875 1504.34375,207.671875 C1503.50521,207.671875 1502.77148,207.46224 1502.14258,207.042969 C1501.51367,206.623698 1501.19922,205.845052 1501.19922,204.707031 C1501.19922,203.628906 1501.21419,202.760417 1501.24414,202.101562 C1501.27409,201.442708 1501.30404,200.828776 1501.33398,200.259766 C1501.36393,199.690755 1501.42383,199.076823 1501.51367,198.417969 C1501.60352,197.759115 1501.70833,196.890625 1501.82812,195.8125 C1497.33594,199.40625 1492.70898,202.28125 1487.94727,204.4375 C1483.18555,206.59375 1478.16927,207.671875 1472.89844,207.671875 C1467.14844,207.671875 1462.04232,206.309245 1457.58008,203.583984 C1453.11784,200.858724 1449.35938,197.205078 1446.30469,192.623047 C1443.25,188.041016 1440.92904,182.80013 1439.3418,176.900391 C1437.75456,171.000651 1436.96094,164.846354 1436.96094,158.4375 C1436.96094,150.111979 1438.32357,142.520182 1441.04883,135.662109 C1443.77409,128.804036 1447.47266,122.934245 1452.14453,118.052734 C1456.81641,113.171224 1462.26693,109.397786 1468.49609,106.732422 C1474.72526,104.067057 1481.34375,102.734375 1488.35156,102.734375 C1492.125,102.734375 1495.73372,103.722656 1499.17773,105.699219 C1502.62174,107.675781 1505.87109,110.221354 1508.92578,113.335938 C1509.10547,110.401042 1509.3151,107.211589 1509.55469,103.767578 C1509.79427,100.323568 1510.03385,96.8196615 1510.27344,93.2558594 C1510.51302,89.6920573 1510.7526,86.1731771 1510.99219,82.6992188 C1511.23177,79.2252604 1511.44141,76.0507812 1511.62109,73.1757812 C1511.62109,72.6367188 1511.81576,72.202474 1512.20508,71.8730469 C1512.5944,71.5436198 1513.59766,71.1692708 1515.21484,70.75 L1540.46094,64.7304688 C1541.11979,64.6106771 1541.98828,64.3411458 1543.06641,63.921875 C1544.14453,63.5026042 1545.19271,63.2929688 1546.21094,63.2929688 C1546.98958,63.2929688 1547.72331,63.4726562 1548.41211,63.8320312 C1549.10091,64.1914062 1549.44531,64.8802083 1549.44531,65.8984375 C1549.44531,66.0182292 1549.43034,66.2727865 1549.40039,66.6621094 C1549.37044,67.0514323 1549.35547,67.3059896 1549.35547,67.4257812 L1537.76562,193.925781 Z" id="Shape" fill-rule="nonzero"></path>
        </g>
    </g>
</svg>