<?xml version="1.0" encoding="UTF-8"?>
<svg width="1440px" height="1080px" viewBox="0 0 1440 1080" version="1.1" xmlns="http://www.w3.org/2000/svg" xmlns:xlink="http://www.w3.org/1999/xlink">
    <title>mask_studio</title>
    <defs>
        <path d="M0,0 L1440,0 L1440,1080 L0,1080 L0,0 Z" id="path-1"></path>
    </defs>
    <g id="mask_studio" stroke="none" fill="none" xlink:href="#path-1" fill-rule="evenodd">
        <path d="M1196.658,0 L1438.91587,242.256926 L1440,241.171 L1440,259.491 L1294.36605,113.857252 L1244.16147,164.061833 L1440,359.9 L1440,372.628 L1237.79751,170.425794 L1025.66548,382.557828 L1237.79751,594.689863 L1440,392.486 L1440,420.77 L1309.2153,551.556349 L1440,682.341 L1440,704.613 L1318.71782,825.896536 L1440,947.179 L1440,1080 L1399.535,1080 L1405.95393,1073.58222 L1111.79751,779.425794 L811.222,1080 L0,1080 L0,0 L743.542,0 L693.325289,50.2176413 L799.391306,156.283659 L955.675,0 L969.816,0 L947.176624,22.6404769 L1159.30866,234.772511 L1287.29499,106.786184 L1180.507,0 L1196.658,0 Z M853.318759,739.031529 L711.897403,880.452886 L853.318759,1021.87424 L994.740115,880.452886 L853.318759,739.031529 Z M1110.51829,481.552778 L969.096934,622.974134 L1237.79751,891.674711 L1379.21887,750.253355 L1110.51829,481.552778 Z M962.025866,630.045202 L861.616703,730.454365 L911.114178,779.95184 L1011.52334,679.542677 L962.025866,630.045202 Z M1004.51293,731.180501 C994.945088,740.748346 994.945088,756.260888 1004.51293,765.828733 C1014.08078,775.396579 1029.59332,775.396579 1039.16117,765.828733 C1048.72901,756.260888 1048.72901,740.748346 1039.16117,731.180501 C1029.59332,721.612656 1014.08078,721.612656 1004.51293,731.180501 Z M709.588745,698.63456 L674.940513,733.282792 L709.588745,767.931024 L744.236977,733.282792 L709.588745,698.63456 Z M813.533442,481.552778 L672.112086,622.974134 L813.533442,764.39549 L954.954798,622.974134 L813.533442,481.552778 Z M606.351155,586.911688 L519.377021,673.885822 L606.351155,760.859956 L693.325289,673.885822 L606.351155,586.911688 Z M1348.68568,619.857252 L1314.03745,654.505484 L1348.68568,689.153716 L1383.33391,654.505484 L1348.68568,619.857252 Z M1283.51293,589.180501 C1273.94509,598.748346 1273.94509,614.260888 1283.51293,623.828733 C1293.08078,633.396579 1308.59332,633.396579 1318.16117,623.828733 C1327.72901,614.260888 1327.72901,598.748346 1318.16117,589.180501 C1308.59332,579.612656 1293.08078,579.612656 1283.51293,589.180501 Z M905.288007,389.798212 L820.60451,474.48171 L962.025866,615.903066 L1103.44722,474.48171 L1019.02515,390.059641 L962.287294,446.797499 L905.288007,389.798212 Z M674.729095,549.566757 C665.16125,539.998912 649.648708,539.998912 640.080863,549.566757 C630.513018,559.134602 630.513018,574.647144 640.080863,584.214989 C649.648708,593.782834 665.16125,593.782834 674.729095,584.214989 C684.29694,574.647144 684.29694,559.134602 674.729095,549.566757 Z M684.132901,435.590837 L639.585174,480.138564 L720.195347,560.748737 L764.743074,516.20101 L684.132901,435.590837 Z M667.162338,264.470996 L490.385643,441.247691 L575.238457,526.100505 L681.304474,420.034488 L771.107035,509.837049 L841.817713,439.126371 L667.162338,264.470996 Z M848.181674,219.216162 L742.115657,325.282179 L848.181674,431.348196 L954.247691,325.282179 L848.181674,219.216162 Z M978.642875,373.718994 C969.07503,364.151149 953.562488,364.151149 943.994643,373.718994 C934.426798,383.286839 934.426798,398.799381 943.994643,408.367226 C953.562488,417.935071 969.07503,417.935071 978.642875,408.367226 C988.21072,398.799381 988.21072,383.286839 978.642875,373.718994 Z M940.105556,29.7115447 L806.462374,163.354726 L1018.59441,375.486761 L1152.23759,241.843579 L940.105556,29.7115447 Z M734.337482,105.37197 L628.271465,211.437987 L734.337482,317.504005 L840.4035,211.437987 L734.337482,105.37197 Z M592.916126,246.793326 L558.267894,281.441559 L592.916126,316.089791 L627.564358,281.441559 L592.916126,246.793326 Z M629.685679,113.857252 L595.037446,148.505484 L629.685679,183.153716 L664.333911,148.505484 L629.685679,113.857252 Z M661.151931,82.3909999 C651.584085,91.958845 651.584085,107.471387 661.151931,117.039232 C670.719776,126.607077 686.232318,126.607077 695.800163,117.039232 C705.368008,107.471387 705.368008,91.958845 695.800163,82.3909999 C686.232318,72.8231547 670.719776,72.8231547 661.151931,82.3909999 Z M628.685679,14.8572516 L594.037446,49.5054839 L628.685679,84.1537162 L663.333911,49.5054839 L628.685679,14.8572516 Z" id="Combined-Shape" fill="#FFFFFF"></path>
    </g>
</svg>